<svg xmlns="http://www.w3.org/2000/svg" xmlns:xlink="http://www.w3.org/1999/xlink" width="100" zoomAndPan="magnify" viewBox="0 0 375 374.999991" height="200" preserveAspectRatio="xMidYMid meet" version="1.0"><defs><g/><clipPath id="bd46d82e48"><path d="M 65 44 L 310 44 L 310 238.898438 L 65 238.898438 Z M 65 44 " clip-rule="nonzero"/></clipPath><clipPath id="44d32d1cdc"><path d="M 231 115 L 327.789062 115 L 327.789062 136 L 231 136 Z M 231 115 " clip-rule="nonzero"/></clipPath><clipPath id="8436103890"><path d="M 47.289062 115 L 144 115 L 144 136 L 47.289062 136 Z M 47.289062 115 " clip-rule="nonzero"/></clipPath><clipPath id="2eed86952d"><path d="M 184 14.648438 L 191 14.648438 L 191 48 L 184 48 Z M 184 14.648438 " clip-rule="nonzero"/></clipPath><clipPath id="b90432008d"><path d="M 157 167 L 218 167 L 218 238.898438 L 157 238.898438 Z M 157 167 " clip-rule="nonzero"/></clipPath></defs><g clip-path="url(#bd46d82e48)"><path fill="#9ea4ad" d="M 309.277344 238.980469 L 65.808594 238.980469 L 65.808594 129.289062 L 137.316406 129.289062 L 137.316406 71.3125 L 187.542969 44.054688 L 237.769531 71.3125 L 237.769531 129.289062 L 309.277344 129.289062 Z M 72.34375 232.445312 L 302.742188 232.445312 L 302.742188 135.820312 L 231.234375 135.820312 L 231.234375 75.234375 L 187.542969 51.523438 L 143.851562 75.234375 L 143.851562 135.820312 L 72.34375 135.820312 Z M 72.34375 232.445312 " fill-opacity="1" fill-rule="nonzero"/></g><g clip-path="url(#44d32d1cdc)"><path fill="#9ea4ad" d="M 327.296875 135.820312 L 231.140625 135.820312 L 231.140625 115.285156 L 327.296875 115.285156 Z M 237.769531 129.289062 L 320.855469 129.289062 L 320.855469 121.820312 L 237.769531 121.820312 Z M 237.769531 129.289062 " fill-opacity="1" fill-rule="nonzero"/></g><g clip-path="url(#8436103890)"><path fill="#9ea4ad" d="M 143.851562 135.820312 L 47.695312 135.820312 L 47.695312 115.285156 L 143.851562 115.285156 Z M 54.230469 129.289062 L 137.316406 129.289062 L 137.316406 121.820312 L 54.230469 121.820312 Z M 54.230469 129.289062 " fill-opacity="1" fill-rule="nonzero"/></g><g clip-path="url(#2eed86952d)"><path fill="#9ea4ad" d="M 184.277344 14.648438 L 190.808594 14.648438 L 190.808594 47.789062 L 184.277344 47.789062 Z M 184.277344 14.648438 " fill-opacity="1" fill-rule="nonzero"/></g><path fill="#9ea4ad" d="M 225.539062 43.121094 L 184.277344 43.121094 L 184.277344 17.632812 L 225.539062 17.632812 Z M 190.808594 36.585938 L 219.003906 36.585938 L 219.003906 24.167969 L 190.808594 24.167969 Z M 190.808594 36.585938 " fill-opacity="1" fill-rule="nonzero"/><path fill="#9ea4ad" d="M 187.542969 124.898438 C 174.191406 124.898438 163.363281 114.070312 163.363281 100.71875 C 163.363281 87.371094 174.191406 76.542969 187.542969 76.542969 C 200.894531 76.542969 211.722656 87.371094 211.722656 100.71875 C 211.722656 114.070312 200.800781 124.898438 187.542969 124.898438 Z M 187.542969 83.167969 C 177.832031 83.167969 169.898438 91.105469 169.898438 100.8125 C 169.898438 110.523438 177.832031 118.457031 187.542969 118.457031 C 197.25 118.457031 205.1875 110.523438 205.1875 100.8125 C 205.1875 91.105469 197.25 83.167969 187.542969 83.167969 Z M 187.542969 83.167969 " fill-opacity="1" fill-rule="nonzero"/><path fill="#9ea4ad" d="M 181.382812 111.738281 L 176.714844 107.253906 L 184.277344 99.414062 L 184.277344 84.945312 L 190.808594 84.945312 L 190.808594 102.027344 Z M 181.382812 111.738281 " fill-opacity="1" fill-rule="nonzero"/><g clip-path="url(#b90432008d)"><path fill="#9ea4ad" d="M 217.324219 238.980469 L 157.855469 238.980469 L 157.855469 167.1875 L 217.324219 167.1875 Z M 164.296875 232.445312 L 210.695312 232.445312 L 210.695312 173.722656 L 164.296875 173.722656 Z M 164.296875 232.445312 " fill-opacity="1" fill-rule="nonzero"/></g><path fill="#9ea4ad" d="M 184.277344 170.457031 L 190.808594 170.457031 L 190.808594 235.710938 L 184.277344 235.710938 Z M 184.277344 170.457031 " fill-opacity="1" fill-rule="nonzero"/><path fill="#9ea4ad" d="M 289.859375 209.480469 L 237.019531 209.480469 L 237.019531 156.640625 L 289.859375 156.640625 Z M 243.554688 202.945312 L 283.324219 202.945312 L 283.324219 163.175781 L 243.554688 163.175781 Z M 243.554688 202.945312 " fill-opacity="1" fill-rule="nonzero"/><path fill="#9ea4ad" d="M 137.972656 209.480469 L 85.132812 209.480469 L 85.132812 156.640625 L 137.972656 156.640625 Z M 91.667969 202.945312 L 131.4375 202.945312 L 131.4375 163.175781 L 91.667969 163.175781 Z M 91.667969 202.945312 " fill-opacity="1" fill-rule="nonzero"/><path fill="#9ea4ad" d="M 260.171875 159.90625 L 266.707031 159.90625 L 266.707031 206.210938 L 260.171875 206.210938 Z M 260.171875 159.90625 " fill-opacity="1" fill-rule="nonzero"/><path fill="#9ea4ad" d="M 240.289062 179.792969 L 286.59375 179.792969 L 286.59375 186.328125 L 240.289062 186.328125 Z M 240.289062 179.792969 " fill-opacity="1" fill-rule="nonzero"/><path fill="#9ea4ad" d="M 88.398438 179.792969 L 134.703125 179.792969 L 134.703125 186.328125 L 88.398438 186.328125 Z M 88.398438 179.792969 " fill-opacity="1" fill-rule="nonzero"/><path fill="#9ea4ad" d="M 108.285156 159.90625 L 114.820312 159.90625 L 114.820312 206.210938 L 108.285156 206.210938 Z M 108.285156 159.90625 " fill-opacity="1" fill-rule="nonzero"/><g fill="#393536" fill-opacity="1"><g transform="translate(34.422617, 286.358165)"><g><path d="M 28.328125 -10.65625 C 28.328125 -9.050781 28.003906 -7.5625 27.359375 -6.1875 C 26.722656 -4.8125 25.78125 -3.609375 24.53125 -2.578125 C 22.0625 -0.503906 18.898438 0.53125 15.046875 0.53125 C 12.046875 0.53125 9.332031 -0.0820312 6.90625 -1.3125 C 4.476562 -2.539062 2.691406 -4.191406 1.546875 -6.265625 L 6.328125 -8.734375 C 7.035156 -7.441406 8.164062 -6.445312 9.71875 -5.75 C 11.269531 -5.0625 13.046875 -4.71875 15.046875 -4.71875 C 20.222656 -4.71875 22.8125 -6.695312 22.8125 -10.65625 C 22.8125 -11.40625 22.675781 -12.046875 22.40625 -12.578125 C 22.144531 -13.117188 21.742188 -13.625 21.203125 -14.09375 C 19.921875 -15.15625 17.617188 -16.117188 14.296875 -16.984375 C 12.296875 -17.484375 10.597656 -18.035156 9.203125 -18.640625 C 7.816406 -19.242188 6.660156 -19.957031 5.734375 -20.78125 C 3.484375 -22.601562 2.359375 -25.015625 2.359375 -28.015625 C 2.359375 -29.515625 2.648438 -30.914062 3.234375 -32.21875 C 3.828125 -33.519531 4.660156 -34.65625 5.734375 -35.625 C 6.835938 -36.582031 8.128906 -37.300781 9.609375 -37.78125 C 11.097656 -38.269531 12.734375 -38.515625 14.515625 -38.515625 C 17.117188 -38.515625 19.519531 -38.015625 21.71875 -37.015625 C 23.914062 -36.015625 25.585938 -34.601562 26.734375 -32.78125 L 22.390625 -30.109375 C 21.347656 -31.359375 20.148438 -32.238281 18.796875 -32.75 C 17.441406 -33.269531 16.015625 -33.53125 14.515625 -33.53125 C 13.441406 -33.53125 12.457031 -33.347656 11.5625 -32.984375 C 10.675781 -32.628906 9.925781 -32.203125 9.3125 -31.703125 C 8.8125 -31.273438 8.445312 -30.75 8.21875 -30.125 C 7.988281 -29.5 7.875 -28.832031 7.875 -28.125 C 7.875 -27.65625 7.941406 -27.179688 8.078125 -26.703125 C 8.222656 -26.222656 8.5625 -25.722656 9.09375 -25.203125 C 9.632812 -24.679688 10.421875 -24.179688 11.453125 -23.703125 C 12.492188 -23.222656 13.90625 -22.75 15.6875 -22.28125 C 17.832031 -21.75 19.632812 -21.171875 21.09375 -20.546875 C 22.5625 -19.921875 23.796875 -19.175781 24.796875 -18.3125 C 27.148438 -16.382812 28.328125 -13.832031 28.328125 -10.65625 Z M 28.328125 -10.65625 "/></g></g></g><g fill="#393536" fill-opacity="1"><g transform="translate(83.479448, 286.358165)"><g><path d="M 20.890625 -4.65625 C 22.960938 -4.65625 24.878906 -5.15625 26.640625 -6.15625 C 28.410156 -7.15625 29.90625 -8.476562 31.125 -10.125 L 35.03125 -6.375 C 33.3125 -4.34375 31.226562 -2.679688 28.78125 -1.390625 C 26.34375 -0.109375 23.710938 0.53125 20.890625 0.53125 C 18.316406 0.53125 15.882812 0.015625 13.59375 -1.015625 C 11.3125 -2.054688 9.332031 -3.457031 7.65625 -5.21875 C 5.976562 -6.988281 4.648438 -9.0625 3.671875 -11.4375 C 2.691406 -13.8125 2.203125 -16.320312 2.203125 -18.96875 C 2.203125 -21.644531 2.691406 -24.160156 3.671875 -26.515625 C 4.648438 -28.867188 5.976562 -30.925781 7.65625 -32.6875 C 9.332031 -34.457031 11.3125 -35.859375 13.59375 -36.890625 C 15.882812 -37.929688 18.316406 -38.453125 20.890625 -38.453125 C 23.285156 -38.453125 25.546875 -37.976562 27.671875 -37.03125 C 29.796875 -36.09375 31.695312 -34.851562 33.375 -33.3125 L 30.046875 -29.078125 C 28.867188 -30.328125 27.492188 -31.351562 25.921875 -32.15625 C 24.347656 -32.96875 22.671875 -33.375 20.890625 -33.375 C 19.066406 -33.375 17.359375 -32.988281 15.765625 -32.21875 C 14.179688 -31.445312 12.800781 -30.398438 11.625 -29.078125 C 10.445312 -27.765625 9.507812 -26.238281 8.8125 -24.5 C 8.113281 -22.769531 7.765625 -20.925781 7.765625 -18.96875 C 7.765625 -17 8.113281 -15.144531 8.8125 -13.40625 C 9.507812 -11.675781 10.445312 -10.160156 11.625 -8.859375 C 12.800781 -7.554688 14.179688 -6.53125 15.765625 -5.78125 C 17.359375 -5.03125 19.066406 -4.65625 20.890625 -4.65625 Z M 20.890625 -4.65625 "/></g></g></g><g fill="#393536" fill-opacity="1"><g transform="translate(138.212656, 286.358165)"><g><path d="M 29.890625 -37.96875 L 35.453125 -37.96875 L 35.453125 0 L 29.890625 0 L 29.890625 -17.40625 L 8.625 -17.40625 L 8.625 0 L 3 0 L 3 -37.96875 L 8.625 -37.96875 L 8.625 -22.609375 L 29.890625 -22.609375 Z M 29.890625 -37.96875 "/></g></g></g><g fill="#393536" fill-opacity="1"><g transform="translate(194.927232, 286.358165)"><g><path d="M 20.625 -38.515625 C 23.195312 -38.515625 25.625 -37.992188 27.90625 -36.953125 C 30.1875 -35.921875 32.175781 -34.519531 33.875 -32.75 C 35.570312 -30.988281 36.921875 -28.921875 37.921875 -26.546875 C 38.921875 -24.171875 39.421875 -21.660156 39.421875 -19.015625 C 39.421875 -16.335938 38.921875 -13.816406 37.921875 -11.453125 C 36.921875 -9.097656 35.5625 -7.035156 33.84375 -5.265625 C 32.132812 -3.503906 30.132812 -2.101562 27.84375 -1.0625 C 25.5625 -0.03125 23.132812 0.484375 20.5625 0.484375 C 18 0.484375 15.570312 -0.03125 13.28125 -1.0625 C 11 -2.101562 9.007812 -3.503906 7.3125 -5.265625 C 5.613281 -7.035156 4.273438 -9.097656 3.296875 -11.453125 C 2.316406 -13.816406 1.828125 -16.335938 1.828125 -19.015625 C 1.828125 -21.660156 2.316406 -24.171875 3.296875 -26.546875 C 4.273438 -28.921875 5.617188 -30.988281 7.328125 -32.75 C 9.046875 -34.519531 11.046875 -35.921875 13.328125 -36.953125 C 15.617188 -37.992188 18.050781 -38.515625 20.625 -38.515625 Z M 20.625 -4.828125 C 22.445312 -4.828125 24.148438 -5.191406 25.734375 -5.921875 C 27.328125 -6.648438 28.710938 -7.65625 29.890625 -8.9375 C 31.066406 -10.226562 31.992188 -11.738281 32.671875 -13.46875 C 33.347656 -15.195312 33.6875 -17.046875 33.6875 -19.015625 C 33.6875 -20.972656 33.347656 -22.8125 32.671875 -24.53125 C 31.992188 -26.25 31.066406 -27.75 29.890625 -29.03125 C 28.710938 -30.3125 27.328125 -31.316406 25.734375 -32.046875 C 24.148438 -32.785156 22.445312 -33.15625 20.625 -33.15625 C 18.800781 -33.15625 17.09375 -32.785156 15.5 -32.046875 C 13.914062 -31.316406 12.535156 -30.3125 11.359375 -29.03125 C 10.179688 -27.75 9.242188 -26.25 8.546875 -24.53125 C 7.847656 -22.8125 7.5 -20.972656 7.5 -19.015625 C 7.5 -17.046875 7.847656 -15.195312 8.546875 -13.46875 C 9.242188 -11.738281 10.179688 -10.226562 11.359375 -8.9375 C 12.535156 -7.65625 13.914062 -6.648438 15.5 -5.921875 C 17.09375 -5.191406 18.800781 -4.828125 20.625 -4.828125 Z M 20.625 -4.828125 "/></g></g></g><g fill="#393536" fill-opacity="1"><g transform="translate(253.998033, 286.358165)"><g><path d="M 20.625 -38.515625 C 23.195312 -38.515625 25.625 -37.992188 27.90625 -36.953125 C 30.1875 -35.921875 32.175781 -34.519531 33.875 -32.75 C 35.570312 -30.988281 36.921875 -28.921875 37.921875 -26.546875 C 38.921875 -24.171875 39.421875 -21.660156 39.421875 -19.015625 C 39.421875 -16.335938 38.921875 -13.816406 37.921875 -11.453125 C 36.921875 -9.097656 35.5625 -7.035156 33.84375 -5.265625 C 32.132812 -3.503906 30.132812 -2.101562 27.84375 -1.0625 C 25.5625 -0.03125 23.132812 0.484375 20.5625 0.484375 C 18 0.484375 15.570312 -0.03125 13.28125 -1.0625 C 11 -2.101562 9.007812 -3.503906 7.3125 -5.265625 C 5.613281 -7.035156 4.273438 -9.097656 3.296875 -11.453125 C 2.316406 -13.816406 1.828125 -16.335938 1.828125 -19.015625 C 1.828125 -21.660156 2.316406 -24.171875 3.296875 -26.546875 C 4.273438 -28.921875 5.617188 -30.988281 7.328125 -32.75 C 9.046875 -34.519531 11.046875 -35.921875 13.328125 -36.953125 C 15.617188 -37.992188 18.050781 -38.515625 20.625 -38.515625 Z M 20.625 -4.828125 C 22.445312 -4.828125 24.148438 -5.191406 25.734375 -5.921875 C 27.328125 -6.648438 28.710938 -7.65625 29.890625 -8.9375 C 31.066406 -10.226562 31.992188 -11.738281 32.671875 -13.46875 C 33.347656 -15.195312 33.6875 -17.046875 33.6875 -19.015625 C 33.6875 -20.972656 33.347656 -22.8125 32.671875 -24.53125 C 31.992188 -26.25 31.066406 -27.75 29.890625 -29.03125 C 28.710938 -30.3125 27.328125 -31.316406 25.734375 -32.046875 C 24.148438 -32.785156 22.445312 -33.15625 20.625 -33.15625 C 18.800781 -33.15625 17.09375 -32.785156 15.5 -32.046875 C 13.914062 -31.316406 12.535156 -30.3125 11.359375 -29.03125 C 10.179688 -27.75 9.242188 -26.25 8.546875 -24.53125 C 7.847656 -22.8125 7.5 -20.972656 7.5 -19.015625 C 7.5 -17.046875 7.847656 -15.195312 8.546875 -13.46875 C 9.242188 -11.738281 10.179688 -10.226562 11.359375 -8.9375 C 12.535156 -7.65625 13.914062 -6.648438 15.5 -5.921875 C 17.09375 -5.191406 18.800781 -4.828125 20.625 -4.828125 Z M 20.625 -4.828125 "/></g></g></g><g fill="#393536" fill-opacity="1"><g transform="translate(313.068835, 286.358165)"><g><path d="M 3.15625 0 L 3.15625 -37.96875 L 8.78125 -37.96875 L 8.78125 -5.203125 L 26.359375 -5.203125 L 26.359375 0 Z M 3.15625 0 "/></g></g></g><g fill="#9ea4ad" fill-opacity="1"><g transform="translate(37.536214, 311.126156)"><g><path d="M 22.484375 -2.4375 L 14.46875 -8.921875 L 11.265625 -4.953125 L 18.453125 0.859375 L 16.65625 3.078125 L 9.46875 -2.734375 L 6.203125 1.328125 L 14.484375 8.015625 L 12.6875 10.234375 L 1.9375 1.5625 L 13.796875 -13.125 L 24.28125 -4.65625 Z M 22.484375 -2.4375 "/></g></g></g><g fill="#9ea4ad" fill-opacity="1"><g transform="translate(68.134477, 333.722205)"><g><path d="M 11.3125 -15.3125 L 18.078125 -11.5625 C 20.546875 -10.195312 22.15625 -8.289062 22.90625 -5.84375 C 23.65625 -3.394531 23.367188 -0.976562 22.046875 1.40625 C 20.734375 3.800781 18.832031 5.328125 16.34375 5.984375 C 13.863281 6.648438 11.375 6.289062 8.875 4.90625 L 2.171875 1.203125 Z M 12.703125 -11.28125 L 6.34375 0.234375 L 10.40625 2.484375 C 12.019531 3.378906 13.664062 3.585938 15.34375 3.109375 C 17.019531 2.628906 18.316406 1.554688 19.234375 -0.109375 C 20.160156 -1.773438 20.367188 -3.460938 19.859375 -5.171875 C 19.347656 -6.878906 18.28125 -8.1875 16.65625 -9.09375 Z M 12.703125 -11.28125 "/></g></g></g><g fill="#9ea4ad" fill-opacity="1"><g transform="translate(105.13273, 352.071028)"><g><path d="M 23.578125 -11.984375 L 20.0625 -1.515625 C 19.269531 0.828125 17.957031 2.441406 16.125 3.328125 C 14.289062 4.210938 12.160156 4.25 9.734375 3.4375 C 7.316406 2.625 5.640625 1.3125 4.703125 -0.5 C 3.773438 -2.320312 3.707031 -4.40625 4.5 -6.75 L 8.015625 -17.21875 L 11.015625 -16.203125 L 7.5 -5.734375 C 6.988281 -4.234375 7.019531 -2.90625 7.59375 -1.75 C 8.175781 -0.59375 9.207031 0.234375 10.6875 0.734375 C 12.15625 1.222656 13.453125 1.179688 14.578125 0.609375 C 15.710938 0.0351562 16.535156 -1.007812 17.046875 -2.53125 L 20.5625 -13 Z M 23.578125 -11.984375 "/></g></g></g><g fill="#9ea4ad" fill-opacity="1"><g transform="translate(144.503546, 363.351945)"><g><path d="M 13.53125 -17.140625 C 14.851562 -16.941406 16.101562 -16.492188 17.28125 -15.796875 C 18.457031 -15.109375 19.425781 -14.242188 20.1875 -13.203125 L 18.015625 -11.1875 C 17.441406 -12 16.722656 -12.691406 15.859375 -13.265625 C 15.003906 -13.835938 14.101562 -14.195312 13.15625 -14.34375 C 11.289062 -14.613281 9.617188 -14.207031 8.140625 -13.125 C 6.671875 -12.050781 5.796875 -10.601562 5.515625 -8.78125 C 5.242188 -6.925781 5.65625 -5.265625 6.75 -3.796875 C 7.84375 -2.328125 9.320312 -1.457031 11.1875 -1.1875 C 13.125 -0.894531 14.972656 -1.367188 16.734375 -2.609375 L 18.28125 -0.265625 C 17.175781 0.535156 15.941406 1.117188 14.578125 1.484375 C 13.222656 1.847656 11.894531 1.929688 10.59375 1.734375 C 7.851562 1.316406 5.6875 0.0625 4.09375 -2.03125 C 2.5 -4.132812 1.90625 -6.53125 2.3125 -9.21875 C 2.707031 -11.863281 3.984375 -13.945312 6.140625 -15.46875 C 8.304688 -17 10.769531 -17.554688 13.53125 -17.140625 Z M 13.53125 -17.140625 "/></g></g></g><g fill="#9ea4ad" fill-opacity="1"><g transform="translate(183.430029, 367.453291)"><g><path d="M 14.5625 -4.640625 L 5.046875 -4.390625 L 3.34375 -0.078125 L 0.03125 0 L 7.890625 -19.078125 L 11.15625 -19.171875 L 19.875 -0.5 L 16.484375 -0.40625 Z M 13.28125 -7.4375 L 9.5 -15.734375 L 6.171875 -7.25 Z M 13.28125 -7.4375 "/></g></g></g><g fill="#9ea4ad" fill-opacity="1"><g transform="translate(223.499768, 364.575731)"><g><path d="M 12.03125 -18.65625 L 6.15625 -17.515625 L 9.21875 -1.796875 L 6.09375 -1.1875 L 3.03125 -16.90625 L -2.8125 -15.765625 L -3.34375 -18.578125 L 11.5 -21.46875 Z M 12.03125 -18.65625 "/></g></g></g><g fill="#9ea4ad" fill-opacity="1"><g transform="translate(258.144422, 356.143813)"><g><path d="M 5.34375 -1.84375 L 2.34375 -0.8125 L -3.8125 -18.65625 L -0.8125 -19.6875 Z M 5.34375 -1.84375 "/></g></g></g><g fill="#9ea4ad" fill-opacity="1"><g transform="translate(284.587331, 345.942514)"><g><path d="M -4.21875 -16.109375 C -3.375 -18.617188 -1.703125 -20.53125 0.796875 -21.84375 C 3.296875 -23.164062 5.820312 -23.472656 8.375 -22.765625 C 10.925781 -22.054688 12.832031 -20.507812 14.09375 -18.125 C 15.351562 -15.738281 15.5625 -13.28125 14.71875 -10.75 C 13.882812 -8.21875 12.21875 -6.289062 9.71875 -4.96875 C 7.21875 -3.65625 4.6875 -3.363281 2.125 -4.09375 C -0.425781 -4.832031 -2.332031 -6.394531 -3.59375 -8.78125 C -4.851562 -11.164062 -5.0625 -13.609375 -4.21875 -16.109375 Z M 2.171875 -19.359375 C 0.515625 -18.484375 -0.597656 -17.164062 -1.171875 -15.40625 C -1.753906 -13.644531 -1.609375 -11.9375 -0.734375 -10.28125 C 0.128906 -8.632812 1.457031 -7.546875 3.25 -7.015625 C 5.050781 -6.484375 6.769531 -6.648438 8.40625 -7.515625 C 10.050781 -8.390625 11.144531 -9.710938 11.6875 -11.484375 C 12.238281 -13.253906 12.078125 -14.960938 11.203125 -16.609375 C 10.335938 -18.265625 9.023438 -19.351562 7.265625 -19.875 C 5.503906 -20.394531 3.804688 -20.222656 2.171875 -19.359375 Z M 2.171875 -19.359375 "/></g></g></g><g fill="#9ea4ad" fill-opacity="1"><g transform="translate(321.030713, 324.517194)"><g><path d="M 14.765625 -11.71875 L 12.3125 -9.765625 L -3.96875 -14.109375 L 4.4375 -3.515625 L 1.953125 -1.546875 L -9.78125 -16.328125 L -7.34375 -18.265625 L 9.015625 -13.921875 L 0.578125 -24.546875 L 3.03125 -26.5 Z M 14.765625 -11.71875 "/></g></g></g><g fill="#9ea4ad" fill-opacity="1"><g transform="translate(11.018897, 225.380258)"><g><path d="M 15.765625 -15.828125 L 5.59375 -15.828125 L 5.59375 -10.796875 L 14.703125 -10.796875 L 14.703125 -7.96875 L 5.59375 -7.96875 L 5.59375 -2.828125 L 16.09375 -2.828125 L 16.09375 0 L 2.453125 0 L 2.453125 -18.65625 L 15.765625 -18.65625 Z M 15.765625 -15.828125 "/></g></g></g><g fill="#9ea4ad" fill-opacity="1"><g transform="translate(39.155963, 225.380258)"><g><path d="M 8.578125 -18.78125 C 10.992188 -18.78125 13.171875 -18.140625 15.109375 -16.859375 L 13.796875 -14.09375 C 11.898438 -15.25 10.082031 -15.828125 8.34375 -15.828125 C 7.394531 -15.828125 6.648438 -15.65625 6.109375 -15.3125 C 5.566406 -14.976562 5.296875 -14.5 5.296875 -13.875 C 5.296875 -13.257812 5.546875 -12.734375 6.046875 -12.296875 C 6.546875 -11.859375 7.164062 -11.535156 7.90625 -11.328125 C 8.65625 -11.128906 9.460938 -10.875 10.328125 -10.5625 C 11.203125 -10.25 12.007812 -9.921875 12.75 -9.578125 C 13.5 -9.234375 14.117188 -8.691406 14.609375 -7.953125 C 15.097656 -7.210938 15.34375 -6.320312 15.34375 -5.28125 C 15.34375 -3.644531 14.6875 -2.335938 13.375 -1.359375 C 12.070312 -0.378906 10.382812 0.109375 8.3125 0.109375 C 6.894531 0.109375 5.519531 -0.15625 4.1875 -0.6875 C 2.851562 -1.21875 1.6875 -1.9375 0.6875 -2.84375 L 2.046875 -5.5625 C 2.992188 -4.695312 4.03125 -4.023438 5.15625 -3.546875 C 6.28125 -3.078125 7.347656 -2.84375 8.359375 -2.84375 C 9.460938 -2.84375 10.320312 -3.039062 10.9375 -3.4375 C 11.550781 -3.84375 11.859375 -4.398438 11.859375 -5.109375 C 11.859375 -5.753906 11.609375 -6.289062 11.109375 -6.71875 C 10.609375 -7.15625 9.984375 -7.476562 9.234375 -7.6875 C 8.492188 -7.894531 7.6875 -8.144531 6.8125 -8.4375 C 5.945312 -8.726562 5.140625 -9.035156 4.390625 -9.359375 C 3.648438 -9.691406 3.03125 -10.222656 2.53125 -10.953125 C 2.03125 -11.679688 1.78125 -12.5625 1.78125 -13.59375 C 1.78125 -15.164062 2.398438 -16.421875 3.640625 -17.359375 C 4.890625 -18.304688 6.535156 -18.78125 8.578125 -18.78125 Z M 8.578125 -18.78125 "/></g></g></g><g fill="#9ea4ad" fill-opacity="1"><g transform="translate(66.387093, 225.380258)"><g><path d="M 15.1875 -15.828125 L 9.265625 -15.828125 L 9.265625 0 L 6.125 0 L 6.125 -15.828125 L 0.234375 -15.828125 L 0.234375 -18.65625 L 15.1875 -18.65625 Z M 15.1875 -15.828125 "/></g></g></g><g fill="#9ea4ad" fill-opacity="1"><g transform="translate(92.472484, 225.380258)"><g><path d="M 2.453125 -18.65625 L 10.09375 -18.65625 C 12.882812 -18.65625 15.1875 -17.773438 17 -16.015625 C 18.820312 -14.253906 19.734375 -12.023438 19.734375 -9.328125 C 19.734375 -6.628906 18.816406 -4.398438 16.984375 -2.640625 C 15.160156 -0.878906 12.835938 0 10.015625 0 L 2.453125 0 Z M 5.59375 -15.828125 L 5.59375 -2.828125 L 10.171875 -2.828125 C 12.003906 -2.828125 13.53125 -3.429688 14.75 -4.640625 C 15.96875 -5.859375 16.578125 -7.410156 16.578125 -9.296875 C 16.578125 -11.179688 15.945312 -12.738281 14.6875 -13.96875 C 13.4375 -15.207031 11.890625 -15.828125 10.046875 -15.828125 Z M 5.59375 -15.828125 "/></g></g></g><g fill="#9ea4ad" fill-opacity="1"><g transform="translate(265.27947, 225.380258)"><g><path d="M 7.671875 -18.78125 C 9.453125 -18.78125 10.882812 -18.351562 11.96875 -17.5 C 13.0625 -16.644531 13.609375 -15.507812 13.609375 -14.09375 C 13.609375 -12.457031 12.472656 -10.414062 10.203125 -7.96875 L 5.359375 -2.828125 L 14.46875 -2.828125 L 14.46875 0 L 1.203125 0 L 1.203125 -2.296875 L 8.078125 -9.671875 C 9.585938 -11.210938 10.34375 -12.535156 10.34375 -13.640625 C 10.34375 -14.390625 10.066406 -14.972656 9.515625 -15.390625 C 8.960938 -15.816406 8.195312 -16.03125 7.21875 -16.03125 C 5.53125 -16.03125 3.832031 -15.25 2.125 -13.6875 L 0.875 -16.125 C 3.0625 -17.894531 5.328125 -18.78125 7.671875 -18.78125 Z M 7.671875 -18.78125 "/></g></g></g><g fill="#9ea4ad" fill-opacity="1"><g transform="translate(291.604666, 225.380258)"><g><path d="M 9.21875 -18.734375 C 11.757812 -18.734375 13.710938 -17.921875 15.078125 -16.296875 C 16.441406 -14.671875 17.125 -12.347656 17.125 -9.328125 C 17.125 -6.304688 16.441406 -3.984375 15.078125 -2.359375 C 13.710938 -0.734375 11.757812 0.078125 9.21875 0.078125 C 6.65625 0.078125 4.691406 -0.734375 3.328125 -2.359375 C 1.960938 -3.984375 1.28125 -6.304688 1.28125 -9.328125 C 1.28125 -12.347656 1.960938 -14.671875 3.328125 -16.296875 C 4.691406 -17.921875 6.65625 -18.734375 9.21875 -18.734375 Z M 9.21875 -16.25 C 6.070312 -16.25 4.5 -13.9375 4.5 -9.3125 C 4.5 -4.695312 6.070312 -2.390625 9.21875 -2.390625 C 12.34375 -2.390625 13.90625 -4.695312 13.90625 -9.3125 C 13.90625 -13.9375 12.34375 -16.25 9.21875 -16.25 Z M 9.21875 -16.25 "/></g></g></g><g fill="#9ea4ad" fill-opacity="1"><g transform="translate(320.674297, 225.380258)"><g><path d="M 7.671875 -18.78125 C 9.453125 -18.78125 10.882812 -18.351562 11.96875 -17.5 C 13.0625 -16.644531 13.609375 -15.507812 13.609375 -14.09375 C 13.609375 -12.457031 12.472656 -10.414062 10.203125 -7.96875 L 5.359375 -2.828125 L 14.46875 -2.828125 L 14.46875 0 L 1.203125 0 L 1.203125 -2.296875 L 8.078125 -9.671875 C 9.585938 -11.210938 10.34375 -12.535156 10.34375 -13.640625 C 10.34375 -14.390625 10.066406 -14.972656 9.515625 -15.390625 C 8.960938 -15.816406 8.195312 -16.03125 7.21875 -16.03125 C 5.53125 -16.03125 3.832031 -15.25 2.125 -13.6875 L 0.875 -16.125 C 3.0625 -17.894531 5.328125 -18.78125 7.671875 -18.78125 Z M 7.671875 -18.78125 "/></g></g></g><g fill="#9ea4ad" fill-opacity="1"><g transform="translate(346.999495, 225.380258)"><g><path d="M 7.671875 -18.78125 C 9.453125 -18.78125 10.882812 -18.351562 11.96875 -17.5 C 13.0625 -16.644531 13.609375 -15.507812 13.609375 -14.09375 C 13.609375 -12.457031 12.472656 -10.414062 10.203125 -7.96875 L 5.359375 -2.828125 L 14.46875 -2.828125 L 14.46875 0 L 1.203125 0 L 1.203125 -2.296875 L 8.078125 -9.671875 C 9.585938 -11.210938 10.34375 -12.535156 10.34375 -13.640625 C 10.34375 -14.390625 10.066406 -14.972656 9.515625 -15.390625 C 8.960938 -15.816406 8.195312 -16.03125 7.21875 -16.03125 C 5.53125 -16.03125 3.832031 -15.25 2.125 -13.6875 L 0.875 -16.125 C 3.0625 -17.894531 5.328125 -18.78125 7.671875 -18.78125 Z M 7.671875 -18.78125 "/></g></g></g></svg>